<svg width="139" height="250" viewBox="0 0 139 250" fill="none" xmlns="http://www.w3.org/2000/svg">
<path opacity="0.2" d="M103.61 249.35C122.824 249.35 138.4 244.291 138.4 238.05C138.4 231.809 122.824 226.75 103.61 226.75C84.3961 226.75 68.8201 231.809 68.8201 238.05C68.8201 244.291 84.3961 249.35 103.61 249.35Z" fill="#0B0C24"/>
<path d="M105.87 0H99.8V239.18H105.87V0Z" fill="#0B0C24"/>
<path d="M99.8 74.56C66.53 61.71 33.27 87.41 0 74.56C0 53.15 0 31.74 0 10.33C33.27 23.18 66.53 -2.52 99.8 10.33C99.8 31.74 99.8 53.15 99.8 74.56Z" fill="#5054EB"/>
<path d="M41.19 47.85C41.19 48.89 41.19 49.92 41.19 50.96C36.87 51.16 32.55 51.01 28.22 50.07C28.22 44.49 28.22 38.91 28.22 33.32C32.44 34.24 36.66 34.4 40.88 34.22C40.88 35.26 40.88 36.29 40.88 37.33C37.95 37.45 35.01 37.41 32.08 37.07C32.08 38.28 32.08 39.49 32.08 40.71C34.67 41.02 37.26 41.08 39.86 41.01C39.86 42.01 39.86 43.02 39.86 44.02C37.27 44.09 34.68 44.03 32.08 43.72C32.08 45.01 32.08 46.3 32.08 47.6C35.11 47.96 38.15 47.99 41.19 47.85Z" fill="#E8E3DF"/>
<path d="M47.7399 36.86C45.9499 37.04 44.1699 37.2 42.3799 37.31C42.3799 36.26 42.3799 35.2 42.3799 34.15C47.2399 33.86 52.1099 33.18 56.9699 32.75C56.9699 33.8 56.9699 34.86 56.9699 35.91C55.1799 36.07 53.3999 36.26 51.6099 36.46C51.6099 40.99 51.6099 45.52 51.6099 50.05C50.3199 50.19 49.0299 50.33 47.7299 50.46C47.7399 45.92 47.7399 41.39 47.7399 36.86Z" fill="#E8E3DF"/>
<path d="M74.42 33.32C74.42 38.9 74.42 44.48 74.42 50.07C73.13 49.79 71.84 49.58 70.54 49.43C70.54 47.14 70.54 44.85 70.54 42.56C68 42.26 65.47 42.19 62.93 42.26C62.93 44.55 62.93 46.84 62.93 49.13C61.64 49.16 60.35 49.23 59.05 49.33C59.05 43.75 59.05 38.17 59.05 32.58C60.34 32.49 61.63 32.42 62.93 32.38C62.93 34.58 62.93 36.78 62.93 38.98C65.47 38.91 68 38.98 70.54 39.28C70.54 37.08 70.54 34.88 70.54 32.68C71.83 32.83 73.12 33.04 74.42 33.32Z" fill="#E8E3DF"/>
</svg>

