<svg width="375" height="256" viewBox="0 0 375 256" fill="none" xmlns="http://www.w3.org/2000/svg">
<path d="M375 9.97545H303.397C287.685 9.97545 272.73 13.8746 262.32 20.6839C256.71 24.3531 248.647 26.4566 240.18 26.4566C234.277 26.4566 228.615 25.0991 224.438 22.6833C216.232 17.9428 205.102 15.2755 193.5 15.2755H136.92C125.077 15.2755 114.143 11.5932 108.292 5.6383C104.872 2.15557 98.475 0 91.545 0H0V40.4136H375V9.97545Z" fill="#93B8C5"/>
<path d="M368.888 20.1027C359.64 20.1027 350.565 21.5643 342.652 24.3314L336.39 26.5217C326.43 30.0001 315.022 31.839 303.39 31.839H149.37C145.073 31.839 140.88 31.0887 137.333 29.6835L128.505 26.1834C124.92 24.7608 120.675 24.0018 116.325 24.0018H99.165C96.015 24.0018 92.9175 24.4529 90.1425 25.3203L85.1475 26.8773C84.135 27.1939 83.0025 27.3588 81.855 27.3588H54.6825C51.6225 27.3588 48.69 26.6214 46.6125 25.3203C41.28 21.998 33.8025 20.107 25.965 20.107H0V90.3689H375V20.107H368.888V20.1027Z" fill="#768D95"/>
<path d="M375 40.4136H0V90.3646H375V40.4136Z" fill="#647D85"/>
<path d="M366.24 34.6408C350.865 34.6408 335.738 36.8788 322.253 41.1422C306.217 46.2167 288.232 48.8754 269.948 48.8754H232.71C223.38 48.8754 214.08 48.3853 204.9 47.4138L137.378 40.2488C120.72 38.4836 103.65 38.4358 86.97 40.1187L0 48.8754V52.4102V90.3646H375V34.6408H366.24Z" fill="#869CA4"/>
<path d="M277.913 69.7935C277.913 69.0995 273.698 68.5357 268.493 68.5357C263.295 68.5357 259.073 69.0995 259.073 69.7935C259.073 70.4874 263.288 71.0512 268.493 71.0512C273.69 71.0512 277.913 70.4874 277.913 69.7935Z" fill="#647D85"/>
<path d="M304.035 60.564C304.035 59.8701 299.82 59.3062 294.615 59.3062C289.41 59.3062 285.195 59.8701 285.195 60.564C285.195 61.2579 289.41 61.8218 294.615 61.8218C299.82 61.8218 304.035 61.2579 304.035 60.564Z" fill="#647D85"/>
<rect y="89" width="375" height="192" fill="#78929A"/>
</svg>

