<svg width="1440" height="347" viewBox="0 0 1440 347" fill="none" xmlns="http://www.w3.org/2000/svg">
<path d="M1440 38.3057H1165.05C1104.71 38.3057 1047.28 53.2783 1007.31 79.4261C985.766 93.516 954.806 101.593 922.291 101.593C899.626 101.593 877.882 96.3806 861.84 87.1039C830.333 68.9004 787.594 58.6577 743.04 58.6577H525.773C480.298 58.6577 438.307 44.5179 415.843 21.6511C402.71 8.27737 378.144 0 351.533 0H0V155.188H1440V38.3057Z" fill="#93B8C5"/>
<path d="M1416.53 77.1944C1381.02 77.1944 1346.17 82.807 1315.79 93.4327L1291.74 101.843C1253.49 115.2 1209.69 122.262 1165.02 122.262H573.581C557.078 122.262 540.979 119.381 527.357 113.985L493.459 100.544C479.693 95.0815 463.392 92.1669 446.688 92.1669H380.794C368.698 92.1669 356.803 93.899 346.147 97.2299L326.966 103.209C323.078 104.425 318.73 105.058 314.323 105.058H209.981C198.23 105.058 186.97 102.226 178.992 97.2299C158.515 84.4725 129.802 77.211 99.7056 77.211H0V347.017H1440V77.211H1416.53V77.1944Z" fill="#768D95"/>
<path d="M1440 155.188H0V347H1440V155.188Z" fill="#647D85"/>
<path d="M1406.36 133.021C1347.32 133.021 1289.23 141.615 1237.45 157.986C1175.88 177.472 1106.81 187.681 1036.6 187.681H893.606C857.779 187.681 822.067 185.799 786.816 182.069L527.53 154.555C463.565 147.777 398.016 147.594 333.965 154.056L0 187.681V201.255V347H1440V133.021H1406.36Z" fill="#869CA4"/>
<path d="M1440 263.194H1282.12C1207.3 263.194 1134.89 274.302 1077.61 294.538C1044 306.413 1001.52 312.941 957.6 312.941H800.582C676.454 312.941 553.738 324.017 440.525 345.451H1439.97V263.194H1440Z" fill="#768D95"/>
<path d="M1312.7 347C1216.63 327.83 1113.78 322.201 1012.78 330.728C979.142 333.576 944.842 332.494 911.952 327.531L584.64 278.333C432.778 255.499 272.736 258.53 123.782 287.076L0 310.809V347H1312.7Z" fill="#78929A"/>
<path d="M201.6 236.197C201.6 231.85 175.162 228.319 142.56 228.319C109.958 228.319 83.52 231.85 83.52 236.197C83.52 240.543 109.958 244.074 142.56 244.074C175.162 244.074 201.6 240.543 201.6 236.197Z" fill="#647D85"/>
<path d="M220.838 255.383C246.001 255.383 266.4 252.661 266.4 249.304C266.4 245.946 246.001 243.225 220.838 243.225C195.675 243.225 175.277 245.946 175.277 249.304C175.277 252.661 195.675 255.383 220.838 255.383Z" fill="#647D85"/>
<path d="M1067.18 268.007C1067.18 265.342 1051 263.177 1031.01 263.177C1011.05 263.177 994.838 265.342 994.838 268.007C994.838 270.672 1011.02 272.837 1031.01 272.837C1050.97 272.837 1067.18 270.672 1067.18 268.007Z" fill="#647D85"/>
<path d="M1167.49 232.566C1167.49 229.901 1151.31 227.736 1131.32 227.736C1111.33 227.736 1095.15 229.901 1095.15 232.566C1095.15 235.231 1111.33 237.396 1131.32 237.396C1151.31 237.396 1167.49 235.231 1167.49 232.566Z" fill="#647D85"/>
</svg>

