<svg width="1440" height="708" viewBox="0 0 1440 708" fill="none" xmlns="http://www.w3.org/2000/svg">
<path fill-rule="evenodd" clip-rule="evenodd" d="M-16 233.717C-14.544 233.16 -13.0881 232.604 -11.6321 232.066C103.943 189.569 238.94 170.432 370.822 177.841C600.545 190.759 814.253 281.282 1044.33 271.454C1177.66 265.772 1309.78 222.699 1384.38 149.625C1413.12 121.466 1431.96 88.8352 1440 55.206V-17.8876C1432.84 -46.8716 1416.91 -74.7232 1391.46 -99.1005C1303.9 -182.924 1133.34 -209.72 978.981 -207.916C655.581 -204.115 351.662 -105.704 30.7949 -78.9844C15.5654 -77.7176 -0.129918 -76.7962 -16 -76.278V233.717Z" fill="#D0EEF8" fill-opacity="0.2"/>
<path fill-rule="evenodd" clip-rule="evenodd" d="M1439.97 349.039C1363.77 340.785 1283.92 342.897 1208.12 352.84C1062.82 371.881 928.634 416.701 797.334 461.904C666.006 507.108 533.658 553.655 389.663 576.65C255.073 598.129 106.884 596.997 -16 556.131V708H1439.97V349.039Z" fill="#D0EEF8" fill-opacity="0.2"/>
</svg>

