<svg width="1323" height="638" viewBox="0 0 1323 638" fill="none" xmlns="http://www.w3.org/2000/svg">
<path d="M489.577 547.836C491.508 547.747 493.153 546.263 493.153 544.26V541.579C493.153 539.702 491.508 537.914 489.577 538.003C487.645 538.093 486 539.576 486 541.579V544.26C486 546.12 487.645 547.925 489.577 547.836Z" fill="white"/>
<path d="M850.577 529.836C852.508 529.747 854.153 528.263 854.153 526.26V523.579C854.153 521.702 852.508 519.914 850.577 520.003C848.645 520.093 847 521.576 847 523.579V526.26C847 528.12 848.645 529.908 850.577 529.836Z" fill="white"/>
<path d="M3.57664 358.836C5.50803 358.747 7.15328 357.263 7.15328 355.26V352.579C7.15328 350.702 5.50803 348.914 3.57664 349.003C1.64526 349.093 0 350.576 0 352.579V355.26C0 357.138 1.64526 358.925 3.57664 358.836Z" fill="white"/>
<path d="M1252.47 637.311C1257.07 637.311 1257.08 630.16 1252.47 630.16C1247.86 630.16 1247.86 637.311 1252.47 637.311Z" fill="white"/>
<path d="M1260.52 495.2C1265.11 495.2 1265.13 488.048 1260.52 488.048C1255.9 488.048 1255.9 495.2 1260.52 495.2Z" fill="white"/>
<path d="M1053.97 430.839C1058.56 430.839 1058.58 423.688 1053.97 423.688C1049.37 423.688 1049.37 430.839 1053.97 430.839Z" fill="white"/>
<path d="M1204.18 395.977C1206.12 395.888 1207.76 394.404 1207.76 392.402V389.72C1207.76 387.843 1206.12 386.055 1204.18 386.145C1202.25 386.234 1200.61 387.718 1200.61 389.72V392.402C1200.61 394.279 1202.25 396.067 1204.18 395.977Z" fill="white"/>
<path d="M644.577 208.836C646.508 208.747 648.153 207.263 648.153 205.26V202.579C648.153 200.702 646.508 198.914 644.577 199.003C642.645 199.093 641 200.576 641 202.579V205.26C641 207.138 642.645 208.925 644.577 208.836Z" fill="white"/>
<path d="M947.577 161.836C949.508 161.747 951.153 160.263 951.153 158.26V155.579C951.153 153.702 949.508 151.914 947.577 152.003C945.645 152.093 944 153.576 944 155.579V158.26C944 160.138 945.645 161.925 947.577 161.836Z" fill="white"/>
<path d="M1204.18 125.145H1205.85C1210.44 125.145 1210.46 117.994 1205.85 117.994H1204.18C1199.59 117.994 1199.57 125.145 1204.18 125.145Z" fill="white"/>
<path d="M615.46 193.151H617.124C621.72 193.151 621.737 186 617.124 186H615.46C610.847 186 610.847 193.151 615.46 193.151Z" fill="white"/>
<path d="M1091.52 7.15116H1094.2C1096.08 7.15116 1097.87 5.50639 1097.78 3.57558C1097.69 1.64477 1096.21 0 1094.2 0H1091.52C1089.64 0 1087.85 1.64477 1087.94 3.57558C1088.03 5.50639 1089.52 7.15116 1091.52 7.15116Z" fill="white"/>
<path d="M423.618 47.3764H426.301C428.179 47.3764 429.967 45.7316 429.877 43.8008C429.788 41.87 428.304 40.2253 426.301 40.2253H423.618C421.741 40.2253 419.952 41.87 420.042 43.8008C420.131 45.7316 421.615 47.3764 423.618 47.3764Z" fill="white"/>
<path d="M549.58 19.1512H552.262C554.14 19.1512 555.928 17.5064 555.839 15.5756C555.75 13.6448 554.265 12 552.262 12H549.58C547.702 12 545.914 13.6448 546.003 15.5756C546.093 17.5064 547.577 19.1512 549.58 19.1512Z" fill="white"/>
<path d="M254.58 73.1512H257.262C259.14 73.1512 260.928 71.5064 260.839 69.5756C260.75 67.6448 259.265 66 257.262 66H254.58C252.702 66 250.914 67.6448 251.003 69.5756C251.093 71.5064 252.577 73.1512 254.58 73.1512Z" fill="white"/>
<path d="M168.8 181.461C173.396 181.461 173.414 174.309 168.8 174.309C164.187 174.309 164.187 181.461 168.8 181.461Z" fill="white"/>
<path d="M300.242 216.305C304.838 216.305 304.856 209.153 300.242 209.153C295.628 209.153 295.628 216.305 300.242 216.305Z" fill="white"/>
<path d="M11.4604 374.151C16.0564 374.151 16.0743 367 11.4604 367C6.84653 367 6.84653 374.151 11.4604 374.151Z" fill="white"/>
<path d="M1298.45 230.151C1303.05 230.151 1303.07 223 1298.45 223C1293.86 223 1293.84 230.151 1298.45 230.151Z" fill="white"/>
<path d="M413.58 164.151H416.262C418.14 164.151 419.928 162.506 419.839 160.576C419.75 158.645 418.265 157 416.262 157H413.58C411.702 157 409.914 158.645 410.003 160.576C410.093 162.506 411.577 164.151 413.58 164.151Z" fill="white"/>
<path d="M1271.04 249.761C1272.47 251.066 1274.69 251.173 1276.1 249.761C1276.99 248.867 1277.89 247.973 1278.78 247.079C1280.11 245.756 1280.21 243.325 1278.78 242.019C1277.35 240.714 1275.13 240.607 1273.72 242.019C1272.83 242.913 1271.93 243.807 1271.04 244.701C1269.7 246.024 1269.61 248.455 1271.04 249.761Z" fill="white"/>
<path d="M1291.03 425.761C1292.46 427.066 1294.68 427.173 1296.09 425.761C1296.99 424.867 1297.88 423.973 1298.78 423.079C1300.1 421.756 1300.21 419.325 1298.78 418.019C1297.35 416.714 1295.13 416.607 1293.72 418.019C1292.82 418.913 1291.93 419.807 1291.03 420.701C1289.71 422.024 1289.6 424.456 1291.03 425.761Z" fill="white"/>
<path d="M1186.45 95.1511C1191.05 95.1511 1191.07 88 1186.45 88C1181.86 88 1181.84 95.1511 1186.45 95.1511Z" fill="white"/>
<path d="M1208.46 213.151C1213.06 213.151 1213.07 206 1208.46 206C1203.85 206 1203.85 213.151 1208.46 213.151Z" fill="white"/>
<path d="M906.58 20.1512H909.262C911.14 20.1512 912.928 18.5064 912.839 16.5756C912.75 14.6448 911.265 13 909.262 13H906.58C904.702 13 902.914 14.6448 903.003 16.5756C903.093 18.5064 904.577 20.1512 906.58 20.1512Z" fill="white"/>
<path d="M321.033 397.761C322.464 399.066 324.681 399.173 326.094 397.761C326.988 396.867 327.882 395.973 328.777 395.079C330.1 393.756 330.207 391.325 328.777 390.019C327.346 388.714 325.128 388.607 323.716 390.019L321.033 392.701C319.71 394.024 319.602 396.455 321.033 397.761Z" fill="white"/>
<path d="M13.6183 245.764C15.5318 246.193 17.4632 245.192 18.0176 243.261C18.0891 243.207 18.1785 243.154 18.2501 243.118C18.3752 243.172 18.5362 243.207 18.3395 243.1C18.3931 243.1 18.4289 243.1 18.4826 243.118C20.1099 243.654 22.0413 243.35 22.9354 241.67C23.7581 240.115 23.4719 237.594 21.6479 236.771C19.4125 235.788 17.195 235.699 14.9775 236.771C13.0819 237.665 11.7048 239.382 11.1326 241.384C10.5961 243.154 11.7406 245.335 13.6183 245.764Z" fill="white"/>
<path d="M651.447 381.151C656.043 381.151 656.061 374 651.447 374C646.851 374 646.851 381.151 651.447 381.151Z" fill="white"/>
<path d="M670.153 372.115V370.453C670.153 365.858 663 365.84 663 370.453V372.115C663 376.71 670.153 376.728 670.153 372.115Z" fill="white"/>
<path d="M935.026 384.761C936.457 386.066 938.675 386.173 940.087 384.761C940.981 383.867 941.876 382.973 942.77 382.079C944.093 380.756 944.2 378.325 942.77 377.019C941.339 375.714 939.122 375.607 937.709 377.019C936.815 377.913 935.92 378.807 935.026 379.701C933.703 381.024 933.614 383.455 935.026 384.761Z" fill="white"/>
<path d="M722.033 435.761C723.464 437.066 725.681 437.173 727.094 435.761C727.988 434.867 728.882 433.973 729.777 433.079C731.1 431.756 731.207 429.325 729.777 428.019C728.346 426.714 726.128 426.607 724.716 428.019C723.821 428.913 722.927 429.807 722.033 430.701C720.71 432.024 720.602 434.455 722.033 435.761Z" fill="white"/>
<path d="M1045.92 586.359C1050.51 586.359 1050.53 579.208 1045.92 579.208C1041.32 579.208 1041.32 586.359 1045.92 586.359Z" fill="white"/>
<path d="M1319.46 399.151C1324.06 399.151 1324.07 392 1319.46 392C1314.85 392 1314.85 399.151 1319.46 399.151Z" fill="white"/>
<path d="M1252.58 14.1512H1255.26C1257.14 14.1512 1258.93 12.5064 1258.84 10.5756C1258.75 8.64477 1257.27 7 1255.26 7H1252.58C1250.7 7 1248.91 8.64477 1249 10.5756C1249.09 12.5064 1250.58 14.1512 1252.58 14.1512Z" fill="white"/>
<path d="M387.512 485.403H390.195C392.072 485.403 393.861 483.758 393.771 481.827C393.682 479.896 392.198 478.251 390.195 478.251H387.512C385.634 478.251 383.846 479.896 383.935 481.827C384.025 483.758 385.509 485.403 387.512 485.403Z" fill="white"/>
<path d="M121.454 84.1512C126.05 84.1512 126.068 77 121.454 77C116.858 77 116.84 84.1512 121.454 84.1512Z" fill="white"/>
<path d="M225.454 543.151C230.05 543.151 230.068 536 225.454 536C220.858 536 220.84 543.151 225.454 543.151Z" fill="white"/>
<path d="M1064.45 102.151C1069.05 102.151 1069.07 95 1064.45 95C1059.86 95 1059.84 102.151 1064.45 102.151Z" fill="white"/>
<path d="M828.655 66.1482C833.251 66.1482 833.269 58.997 828.655 58.997C824.059 58.997 824.041 66.1482 828.655 66.1482Z" fill="white"/>
<path d="M686.447 59.1512C691.043 59.1512 691.061 52 686.447 52C681.851 52 681.851 59.1512 686.447 59.1512Z" fill="white"/>
</svg>

